<?xml version="1.0" encoding="UTF-8" standalone="no"?>
<!DOCTYPE svg PUBLIC "-//W3C//DTD SVG 1.1//EN" "http://www.w3.org/Graphics/SVG/1.1/DTD/svg11.dtd">
<svg width="100%" height="100%" viewBox="0 0 1024 600" version="1.1" xmlns="http://www.w3.org/2000/svg" xmlns:xlink="http://www.w3.org/1999/xlink" xml:space="preserve" xmlns:serif="http://www.serif.com/" style="fill-rule:evenodd;clip-rule:evenodd;stroke-linecap:round;stroke-linejoin:round;stroke-miterlimit:1.5;">
    <g transform="matrix(0.992395,0,0,2.17666,9.05423,9.01755)">
        <rect x="-9.164" y="-7.664" width="1032.02" height="278.787" style="fill:white;stroke:black;stroke-opacity:0;stroke-width:3.43px;"/>
    </g>
    <g transform="matrix(0.837214,0,0,1.58568,67.781,62.5188)">
        <rect x="-84.625" y="-44.433" width="345.695" height="387.73" style="fill:rgb(243,243,243);stroke:black;stroke-opacity:0;stroke-width:4.58px;"/>
    </g>
    <g transform="matrix(0.910427,1.38778e-17,0,0.992093,61.6771,-51.8052)">
        <path d="M1057.17,396.798L246.793,396.887L-23.923,615.782L-23.923,622.691L1057.74,619.985L1057.17,396.798Z" style="fill:rgb(111,75,63);stroke:black;stroke-opacity:0;stroke-width:6.1px;"/>
    </g>
    <g transform="matrix(0.959854,-0.000132129,-0.00684863,0.732782,8.257,148.369)">
        <path d="M1062.96,559.901L36.972,560.528L-8.742,610.334L-8.617,627.867L1062.96,628.06L1062.96,559.901Z" style="fill:rgb(111,75,63);stroke:black;stroke-opacity:0;stroke-width:6.83px;"/>
    </g>
    <rect id="Artboard1" x="0" y="0" width="1024" height="600" style="fill:none;"/>
    <g id="Artboard11" serif:id="Artboard1">
        <g transform="matrix(0.426889,-0.00805252,0.00745424,0.422811,27.2748,231.783)">
            <g>
                <ellipse cx="767.262" cy="249.793" rx="98.403" ry="91.374" style="fill:rgb(189,64,0);stroke:black;stroke-width:1.88px;"/>
                <g transform="matrix(0.857142,0,0,0.87574,109.609,31.58)">
                    <ellipse cx="767.262" cy="249.793" rx="98.403" ry="91.374" style="fill-opacity:0.235294;stroke:black;stroke-opacity:0;stroke-width:2.17px;"/>
                </g>
                <g transform="matrix(0.752747,0,0,0.763314,190.249,60.204)">
                    <ellipse cx="767.262" cy="249.793" rx="98.403" ry="91.374" style="fill:rgb(208,93,2);stroke:black;stroke-opacity:0;stroke-width:2.49px;"/>
                </g>
                <g transform="matrix(0.789267,0,0,0.914372,173.128,8.27747)">
                    <path d="M789.43,210.324L796.835,229.377L820.797,229.377L801.411,241.153L808.816,260.206L789.43,248.431L770.044,260.206L777.449,241.153L758.063,229.377L782.025,229.377L789.43,210.324Z" style="fill:rgb(175,17,8);stroke:black;stroke-opacity:0;stroke-width:2.21px;"/>
                </g>
                <g transform="matrix(0.789267,0,0,0.914372,116.201,8.72495)">
                    <path d="M789.43,210.324L796.835,229.377L820.797,229.377L801.411,241.153L808.816,260.206L789.43,248.431L770.044,260.206L777.449,241.153L758.063,229.377L782.025,229.377L789.43,210.324Z" style="fill:rgb(175,17,8);stroke:black;stroke-opacity:0;stroke-width:2.21px;"/>
                </g>
                <g transform="matrix(0.789267,0,0,0.914372,175.287,58.4454)">
                    <path d="M789.43,210.324L796.835,229.377L820.797,229.377L801.411,241.153L808.816,260.206L789.43,248.431L770.044,260.206L777.449,241.153L758.063,229.377L782.025,229.377L789.43,210.324Z" style="fill:rgb(175,17,8);stroke:black;stroke-opacity:0;stroke-width:2.21px;"/>
                </g>
                <g transform="matrix(0.789267,0,0,0.914372,116.336,56.4714)">
                    <path d="M789.43,210.324L796.835,229.377L820.797,229.377L801.411,241.153L808.816,260.206L789.43,248.431L770.044,260.206L777.449,241.153L758.063,229.377L782.025,229.377L789.43,210.324Z" style="fill:rgb(175,17,8);stroke:black;stroke-opacity:0;stroke-width:2.21px;"/>
                </g>
            </g>
        </g>
        <g transform="matrix(0.410041,0,0,0.410041,-699.705,69.6721)">
            <g transform="matrix(2.44637,-2.10434e-17,1.8863e-17,2.71844,812.788,-45.538)">
                <rect x="518.356" y="307.12" width="86.507" height="82.182" style="fill:white;stroke:black;stroke-width:0.78px;"/>
            </g>
            <g transform="matrix(1.84411,0.0424695,-0.0424695,1.84411,333.612,-339.46)">
                <g>
                    <g transform="matrix(1,0,0,0.923156,0,42.8355)">
                        <rect x="983.192" y="557.432" width="15.874" height="34.583" style="fill:rgb(213,131,46);stroke:black;stroke-width:0.68px;"/>
                    </g>
                    <g transform="matrix(0.903226,0,0,1.05902,95.6594,-31.8974)">
                        <path d="M991.413,540.424L1000.2,556.298L982.626,556.298L991.413,540.424Z" style="fill:rgb(175,86,67);stroke:black;stroke-width:0.66px;"/>
                    </g>
                    <g transform="matrix(1.075,0,0,0.938053,-81.85,34.0867)">
                        <rect x="1011.97" y="551.4" width="14.174" height="40.04" style="stroke:black;stroke-width:0.65px;"/>
                    </g>
                    <g transform="matrix(1.07391,-3.747e-18,2.71051e-18,0.863881,-80.7981,73.0379)">
                        <rect x="1015.15" y="530.848" width="7.087" height="22.678" style="fill:rgb(142,142,142);stroke:black;stroke-width:0.67px;"/>
                    </g>
                    <g transform="matrix(0.808258,0,0,0.864247,188.32,74.3211)">
                        <rect x="1030.77" y="554.076" width="7.087" height="62.009" style="fill:rgb(142,142,142);stroke:black;stroke-width:0.78px;"/>
                    </g>
                    <g transform="matrix(0.760502,0.298244,-0.182295,0.464841,391.421,-21.8259)">
                        <rect x="1030.77" y="554.076" width="7.087" height="62.009" style="fill:rgb(80,70,70);stroke:black;stroke-width:0.96px;"/>
                    </g>
                    <g transform="matrix(0.934033,0.357188,-0.446684,1.16806,333.567,-475.525)">
                        <path d="M1052.75,557.805L1042.55,557.805L1041.73,591.79L1052.75,588.419L1052.75,557.805Z" style="fill:rgb(140,158,69);stroke:black;stroke-width:0.58px;"/>
                    </g>
                    <g transform="matrix(0.614685,0.252621,-0.252715,0.614915,539.037,-58.0605)">
                        <path d="M1087.54,563.687C1088.52,559.528 1089.34,539.403 1087.51,534.962C1085.61,530.328 1084.02,522.654 1077.84,522.654C1071.66,522.654 1066.64,534.912 1066.64,550.009C1066.64,554.811 1067.16,559.528 1068.14,563.687L1087.54,563.687Z" style="fill:rgb(80,70,70);stroke:black;stroke-width:0.98px;"/>
                    </g>
                </g>
            </g>
        </g>
        <g transform="matrix(1,0,0,1.0356,0,-13.1416)">
            <path d="M943.709,369.117L655.419,369.117L571.51,516.645L870.165,526.094L943.709,369.117Z" style="stroke:black;stroke-opacity:0;stroke-width:5.7px;"/>
        </g>
        <g transform="matrix(1,0,0,1.03422,68.9362,-172.037)">
            <rect x="585.991" y="369.117" width="288.379" height="155.339" style="stroke:black;stroke-opacity:0;stroke-width:5.71px;"/>
        </g>
        <g transform="matrix(0.997341,0.0728822,-0.0728822,0.997341,40.2864,-65.073)">
            <path d="M655.976,398.988L909.909,381.401" style="fill:rgb(255,246,246);fill-opacity:0.666667;stroke:rgb(191,191,191);stroke-width:2.93px;"/>
            <g transform="matrix(1,0,0,1,-8.72004,20.3467)">
                <path d="M655.976,398.988L909.743,382.91" style="fill:rgb(255,246,246);fill-opacity:0.666667;stroke:rgb(191,191,191);stroke-width:2.93px;"/>
            </g>
            <g transform="matrix(1,0,0,1,-17.44,43.6001)">
                <path d="M654.444,398.988L907.988,386.546" style="fill:rgb(255,246,246);fill-opacity:0.666667;stroke:rgb(191,191,191);stroke-width:2.93px;"/>
            </g>
            <g transform="matrix(1,0,0,1,-27.4058,66.023)">
                <path d="M655.071,398.988L908.126,388.682" style="fill:rgb(255,246,246);fill-opacity:0.666667;stroke:rgb(191,191,191);stroke-width:2.93px;"/>
            </g>
            <g transform="matrix(1,0,0,1,-35.3784,87.2832)">
                <path d="M653.468,398.988L907.894,388.603" style="fill:rgb(255,246,246);fill-opacity:0.666667;stroke:rgb(191,191,191);stroke-width:2.93px;"/>
            </g>
            <g transform="matrix(1,0,0,1,-4.98287,-0.415237)">
                <path d="M681.303,398.15L643.253,485.983" style="fill:rgb(255,246,246);fill-opacity:0.666667;stroke:rgb(191,191,191);stroke-width:2.93px;"/>
            </g>
            <g transform="matrix(1,0,0,1,-24.4991,-2.0762)">
                <path d="M680.437,400.975L642.527,488.111" style="fill:rgb(255,246,246);fill-opacity:0.666667;stroke:rgb(191,191,191);stroke-width:2.93px;"/>
            </g>
            <g transform="matrix(1,0,0,1,15.4936,3.89285)">
                <path d="M683.535,392.267L646.86,480.61" style="fill:rgb(255,246,246);fill-opacity:0.666667;stroke:rgb(191,191,191);stroke-width:2.93px;"/>
            </g>
            <g transform="matrix(1,0,0,1,38.2798,5.8393)">
                <path d="M685.097,388.583L647.014,477.675" style="fill:rgb(255,246,246);fill-opacity:0.666667;stroke:rgb(191,191,191);stroke-width:2.93px;"/>
            </g>
            <g transform="matrix(1,0,0,1,61.637,5.8393)">
                <path d="M685.596,386.969L647.364,476.688" style="fill:rgb(255,246,246);fill-opacity:0.666667;stroke:rgb(191,191,191);stroke-width:2.93px;"/>
            </g>
            <g transform="matrix(1,0,0,1,114.022,11.452)">
                <path d="M685.204,377.837L650.218,468.661" style="fill:rgb(255,246,246);fill-opacity:0.666667;stroke:rgb(191,191,191);stroke-width:2.93px;"/>
            </g>
            <g transform="matrix(1,0,0,1,143.616,6.17946)">
                <path d="M686.041,380.702L648.661,472.861" style="fill:rgb(255,246,246);fill-opacity:0.666667;stroke:rgb(191,191,191);stroke-width:2.93px;"/>
            </g>
            <g transform="matrix(1,0,0,1,169.394,6.71096)">
                <path d="M689.002,378.595L650.044,471.146" style="fill:rgb(255,246,246);fill-opacity:0.666667;stroke:rgb(191,191,191);stroke-width:2.93px;"/>
            </g>
            <g transform="matrix(1,0,0,1,196.501,7.50823)">
                <path d="M689.724,375.55L651.109,469.256" style="fill:rgb(255,246,246);fill-opacity:0.666667;stroke:rgb(191,191,191);stroke-width:2.93px;"/>
            </g>
            <g transform="matrix(0.998918,-0.0465073,0.0465073,0.998918,201.14,37.5225)">
                <path d="M692.118,376.39L650.416,469.061" style="fill:rgb(255,246,246);fill-opacity:0.666667;stroke:rgb(191,191,191);stroke-width:2.93px;"/>
            </g>
            <g transform="matrix(1,0,0,1,87.9997,7.02987)">
                <path d="M684.698,384.142L648.31,474.365" style="fill:rgb(255,246,246);fill-opacity:0.666667;stroke:rgb(191,191,191);stroke-width:2.93px;"/>
            </g>
        </g>
        <g transform="matrix(-0.450311,-0.0386525,-0.0350885,0.439553,1141.62,479.333)">
            <g>
                <path d="M609.545,82.64C570.513,45.31 414.01,69.787 369.531,82.64C343.381,90.196 343.743,136.174 342.671,159.756C341.233,191.37 336.88,221.906 342.671,235.14C350.776,253.664 399.287,245.682 409.397,235.14C419.507,224.598 405.432,167.625 424.993,159.756C431.731,157.046 453.903,174.236 471.028,152.931C476.216,146.477 478.029,142.205 490.783,142.293C502.247,142.372 500.997,146.329 507.517,152.931C528.265,173.94 541.02,155.672 551.173,159.756C570.734,167.625 550.545,224.598 560.583,235.14C570.62,245.682 613.677,247.504 626.008,230.824C634.892,218.807 632.913,180.19 631.331,155.142C630.247,137.966 627.07,99.401 609.545,82.64Z" style="fill:white;stroke:black;stroke-width:1.8px;"/>
                <g transform="matrix(1,0,0,1,8.72221,14.9005)">
                    <ellipse cx="440.308" cy="121.754" rx="22.528" ry="22.095" style="fill:rgb(213,213,213);stroke:black;stroke-width:1.8px;"/>
                </g>
                <g transform="matrix(0.653165,0,0,0.646364,161.255,58.139)">
                    <ellipse cx="440.308" cy="121.754" rx="22.528" ry="22.095" style="fill:rgb(157,157,157);stroke:black;stroke-width:2.77px;"/>
                </g>
                <g transform="matrix(1,0,0,1,89.5663,14.7551)">
                    <ellipse cx="440.308" cy="121.754" rx="22.528" ry="22.095" style="fill:rgb(213,213,213);stroke:black;stroke-width:1.8px;"/>
                </g>
                <g transform="matrix(1,0,0,1,0.454279,10.4485)">
                    <g transform="matrix(0.232119,0,0,0.243381,488.29,81.5098)">
                        <ellipse cx="440.308" cy="121.754" rx="22.528" ry="22.095" style="fill:white;stroke:black;stroke-width:7.56px;"/>
                    </g>
                    <g transform="matrix(0.232119,0,0,0.243381,502.246,68.4265)">
                        <ellipse cx="440.308" cy="121.754" rx="22.528" ry="22.095" style="fill:white;stroke:black;stroke-width:7.56px;"/>
                    </g>
                    <g transform="matrix(0.232119,0,0,0.243381,487.709,55.6339)">
                        <ellipse cx="440.308" cy="121.754" rx="22.528" ry="22.095" style="fill:white;stroke:black;stroke-width:7.56px;"/>
                    </g>
                    <g transform="matrix(0.232119,0,0,0.243381,474.044,68.4265)">
                        <ellipse cx="440.308" cy="121.754" rx="22.528" ry="22.095" style="fill:white;stroke:black;stroke-width:7.56px;"/>
                    </g>
                </g>
                <g transform="matrix(0.280514,0,0,0.284501,365.949,76.3214)">
                    <ellipse cx="440.308" cy="121.754" rx="22.528" ry="22.095" style="fill:rgb(34,255,0);fill-opacity:0.345098;stroke:black;stroke-width:6.36px;"/>
                </g>
                <g transform="matrix(1,0,0,1,6.03345,8.67391)">
                    <g transform="matrix(0.232119,0,0,0.243381,281.592,82.6455)">
                        <ellipse cx="440.308" cy="121.754" rx="22.528" ry="22.095" style="fill:rgb(34,255,0);fill-opacity:0.262745;stroke:black;stroke-width:7.56px;"/>
                    </g>
                    <g transform="matrix(0.232119,0,0,0.243381,295.547,69.5622)">
                        <ellipse cx="440.308" cy="121.754" rx="22.528" ry="22.095" style="fill:rgb(34,255,0);fill-opacity:0.262745;stroke:black;stroke-width:7.56px;"/>
                    </g>
                    <g transform="matrix(0.232119,0,0,0.243381,281.01,56.7696)">
                        <ellipse cx="440.308" cy="121.754" rx="22.528" ry="22.095" style="fill:rgb(34,255,0);fill-opacity:0.262745;stroke:black;stroke-width:7.56px;"/>
                    </g>
                    <g transform="matrix(0.232119,0,0,0.243381,267.345,69.5622)">
                        <ellipse cx="440.308" cy="121.754" rx="22.528" ry="22.095" style="fill:rgb(34,255,0);fill-opacity:0.262745;stroke:black;stroke-width:7.56px;"/>
                    </g>
                </g>
                <g transform="matrix(1,0,0,1,9.42725,0.554542)">
                    <path d="M528.931,64.862C528.931,60.73 525.577,57.666 521.445,57.666L479.91,55.953L436.045,59.556C431.913,59.556 428.559,62.474 428.559,66.606L428.559,79.834C428.559,83.966 431.913,87.321 436.045,87.321L521.445,87.321C525.577,87.321 528.931,83.966 528.931,79.834L528.931,64.862Z" style="fill:rgb(185,210,211);stroke:black;stroke-width:1.8px;"/>
                </g>
                <g>
                    <g transform="matrix(9.57146,0,0,1,-4823.79,0)">
                        <path d="M565.093,242.799C565.411,241.784 565.659,184.842 565.303,176.503C565.25,175.254 561.967,162.094 561.967,162.094C561.967,162.094 562.225,165.622 562.367,170.158C562.483,173.859 562.512,178.59 562.512,179.669C562.512,184.259 562.406,193.576 562.367,200.008C562.331,206.092 562.233,213.019 562.195,218.26C562.162,222.658 562.269,229.089 562.367,232.352C562.433,234.518 563.038,238.908 563.499,240.29C564.213,242.429 565.026,243.012 565.093,242.799Z" style="fill:rgb(201,151,112);stroke:black;stroke-width:0.26px;"/>
                    </g>
                    <path d="M560.132,182.902L588.334,195.404" style="fill:rgb(201,151,112);stroke:black;stroke-width:1.8px;"/>
                    <g transform="matrix(1,0,0,1,-0.581478,19.7703)">
                        <path d="M560.132,182.902L588.334,195.404" style="fill:rgb(201,151,112);stroke:black;stroke-width:1.8px;"/>
                    </g>
                    <g transform="matrix(1,0,0,1,-2.03517,38.087)">
                        <path d="M560.132,182.902L588.334,195.404" style="fill:rgb(201,151,112);stroke:black;stroke-width:1.8px;"/>
                    </g>
                </g>
                <g transform="matrix(-0.998031,-0.0627214,-0.0627214,0.998031,984.811,36.9357)">
                    <g transform="matrix(9.57146,0,0,1,-4823.79,0)">
                        <path d="M565.107,244.631C565.425,243.617 565.659,184.842 565.303,176.503C565.25,175.254 562.068,162.597 562.068,162.597C562.068,162.597 562.225,165.622 562.367,170.158C562.483,173.859 562.512,178.59 562.512,179.669C562.512,184.259 562.466,193.564 562.428,199.996C562.391,206.081 562.392,213.723 562.354,218.964C562.321,223.362 562.381,225.794 562.497,230.286C562.564,232.884 563.13,237.952 563.767,240.755C564.406,243.57 565.044,244.833 565.107,244.631Z" style="fill:rgb(201,151,112);stroke:black;stroke-width:0.26px;"/>
                    </g>
                    <path d="M560.132,182.902L588.334,195.404" style="fill:rgb(201,151,112);stroke:black;stroke-width:1.78px;"/>
                    <g transform="matrix(1,0,0,1,-0.581478,19.7703)">
                        <path d="M560.132,182.902L588.334,195.404" style="fill:rgb(201,151,112);stroke:black;stroke-width:1.78px;"/>
                    </g>
                    <g transform="matrix(1,0,0,1,-2.03517,38.087)">
                        <path d="M561.492,183.14L588.334,195.404" style="fill:rgb(201,151,112);stroke:black;stroke-width:1.78px;"/>
                    </g>
                </g>
                <g transform="matrix(0.653165,0,0,0.646364,242.371,58.139)">
                    <ellipse cx="440.308" cy="121.754" rx="22.528" ry="22.095" style="fill:rgb(157,157,157);stroke:black;stroke-width:2.77px;"/>
                </g>
                <g transform="matrix(0.978968,0.204013,-0.204013,0.978968,25.4683,-119.684)">
                    <rect x="565.073" y="63.908" width="29.528" height="7.268" style="fill:white;stroke:black;stroke-width:1.81px;"/>
                </g>
                <g transform="matrix(-0.978968,0.204013,0.204013,0.978968,936.42,-109.683)">
                    <rect x="565.073" y="63.908" width="29.528" height="7.268" style="fill:white;stroke:black;stroke-width:1.8px;"/>
                </g>
            </g>
        </g>
        <g transform="matrix(1.01698,0,0,1,-15.8888,0)">
            <path d="M935.996,216.199L666.922,216.199L666.922,359.982L935.996,362.363L935.996,216.199Z" style="fill:white;stroke:white;stroke-opacity:0;stroke-width:0.77px;"/>
        </g>
        <g transform="matrix(1.45691,-0.0355386,0.0442363,1.81347,-369.007,-305.166)">
            <path d="M778.818,448.382L720.197,445.513L707.743,465.436L766.09,468.278L778.818,448.382Z" style="fill:rgb(181,181,181);stroke:white;stroke-opacity:0;stroke-width:0.47px;"/>
        </g>
        <g transform="matrix(0.73949,0,0,0.73949,734.236,227.499)">
            <g transform="matrix(1,0,0,1,-39.0101,3.51441)">
                <g transform="matrix(0.974615,0,0,1,84.2105,-8.32661)">
                    <path d="M15.732,43.389L84.236,43.389" style="fill:rgb(158,70,69);stroke:rgb(158,70,69);stroke-width:7.95px;"/>
                </g>
                <g transform="matrix(1.00519,0,0,1,81.6991,43.2542)">
                    <path d="M17.733,43.389L84.236,43.389" style="fill:rgb(158,70,69);stroke:rgb(158,70,69);stroke-width:7.83px;"/>
                </g>
                <g transform="matrix(-0.00261395,-0.49906,0.999986,-0.00523766,56.3437,87.1505)">
                    <path d="M17.734,43.216L84.236,43.389" style="fill:rgb(158,70,69);stroke:rgb(158,70,69);stroke-width:9.93px;"/>
                </g>
                <g transform="matrix(0.00338849,-0.524518,0.999979,0.00646007,122.661,139.63)">
                    <path d="M17.735,43.615L84.236,43.389" style="fill:rgb(158,70,69);stroke:rgb(158,70,69);stroke-width:9.83px;"/>
                </g>
                <g transform="matrix(1.00458,0,0,1,81.6604,96.598)">
                    <path d="M17.733,43.389L84.236,43.389" style="fill:rgb(158,70,69);stroke:rgb(158,70,69);stroke-width:7.83px;"/>
                </g>
            </g>
            <g transform="matrix(1,0,0,1,14.8155,-16.8586)">
                <g transform="matrix(1,0,0,1,4.86609,1.3517)">
                    <path d="M17.733,43.389L84.236,43.389" style="fill:rgb(98,191,195);stroke:rgb(98,191,195);stroke-width:7.85px;"/>
                </g>
                <g transform="matrix(0.999661,0,0,1,4.92407,43.5245)">
                    <path d="M17.733,43.389L84.236,43.389" style="fill:rgb(98,191,195);stroke:rgb(98,191,195);stroke-width:7.85px;"/>
                </g>
                <g transform="matrix(1.00068,0,0,1,5.01585,86.7788)">
                    <path d="M17.733,43.389L84.236,43.389" style="fill:rgb(98,191,195);stroke:rgb(98,191,195);stroke-width:7.85px;"/>
                </g>
            </g>
        </g>
        <g transform="matrix(1,0,0,1,41.8115,-4.32531)">
            <g transform="matrix(0.65043,0.372161,-0.418705,0.731775,344.591,-36.1584)">
                <path d="M515.32,347.098L287.48,462.972L251.364,665.653L499.243,539.589L515.32,347.098Z" style="fill:white;stroke:black;stroke-width:1px;"/>
            </g>
            <g transform="matrix(0.945202,0,0,0.950941,22.4721,25.0269)">
                <g transform="matrix(1.03493,0,0,0.497143,-11.7601,209.682)">
                    <path d="M511.232,419.705C511.766,418.809 512.951,417.391 510.277,416.982L344.757,416.982C343.531,416.982 343.519,417.237 342.277,418.748L337.065,425.088C336.188,426.155 336.865,426.903 338.234,426.903L503.217,426.903C505.122,426.903 505.74,426.716 507.536,424.423L511.232,419.705Z" style="fill:rgb(207,207,207);stroke:black;stroke-opacity:0;stroke-width:1.04px;"/>
                </g>
                <g transform="matrix(1.03493,0,0,0.497143,-20.6184,221.862)">
                    <path d="M511.232,419.705C511.766,418.809 512.951,417.391 510.277,416.982L344.757,416.982C343.531,416.982 343.519,417.237 342.277,418.748L337.065,425.088C336.188,426.155 336.865,426.903 338.234,426.903L503.217,426.903C505.122,426.903 505.74,426.716 507.536,424.423L511.232,419.705Z" style="fill:rgb(207,207,207);stroke:black;stroke-opacity:0;stroke-width:1.04px;"/>
                </g>
                <g transform="matrix(1.03493,0,0,0.497143,-33.9058,237.364)">
                    <path d="M511.232,419.705C511.766,418.809 512.951,417.391 510.277,416.982L344.757,416.982C343.531,416.982 343.519,417.237 342.277,418.748L337.065,425.088C336.188,426.155 336.865,426.903 338.234,426.903L503.217,426.903C505.122,426.903 505.74,426.716 507.536,424.423L511.232,419.705Z" style="fill:rgb(207,207,207);stroke:black;stroke-opacity:0;stroke-width:1.04px;"/>
                </g>
                <g transform="matrix(1.03493,0,0,0.497143,-45.5323,252.866)">
                    <path d="M511.232,419.705C511.766,418.809 512.951,417.391 510.277,416.982L344.757,416.982C343.531,416.982 343.519,417.237 342.277,418.748L337.065,425.088C336.188,426.155 336.865,426.903 338.234,426.903L503.217,426.903C505.122,426.903 505.74,426.716 507.536,424.423L511.232,419.705Z" style="fill:rgb(207,207,207);stroke:black;stroke-opacity:0;stroke-width:1.04px;"/>
                </g>
                <g transform="matrix(1.03493,0,0,0.497143,-57.7125,269.476)">
                    <path d="M511.232,419.705C511.766,418.809 512.951,417.391 510.277,416.982L344.757,416.982C343.531,416.982 343.519,417.237 342.277,418.748L337.065,425.088C336.188,426.155 336.865,426.903 338.234,426.903L503.217,426.903C505.122,426.903 505.74,426.716 507.536,424.423L511.232,419.705Z" style="fill:rgb(207,207,207);stroke:black;stroke-opacity:0;stroke-width:1.04px;"/>
                </g>
                <g transform="matrix(1.03493,0,0,0.497143,-71,287.192)">
                    <path d="M511.232,419.705C511.766,418.809 512.951,417.391 510.277,416.982L344.757,416.982C343.531,416.982 343.519,417.237 342.277,418.748L337.065,425.088C336.188,426.155 336.865,426.903 338.234,426.903L503.217,426.903C505.122,426.903 505.74,426.716 507.536,424.423L511.232,419.705Z" style="fill:rgb(207,207,207);stroke:black;stroke-opacity:0;stroke-width:1.04px;"/>
                </g>
                <g transform="matrix(1.03493,0,0,0.497143,-82.6264,303.248)">
                    <path d="M511.232,419.705C511.766,418.809 512.951,417.391 510.277,416.982L344.757,416.982C343.531,416.982 343.519,417.237 342.277,418.748L337.065,425.088C336.188,426.155 336.865,426.903 338.234,426.903L503.217,426.903C505.122,426.903 505.74,426.716 507.536,424.423L511.232,419.705Z" style="fill:rgb(207,207,207);stroke:black;stroke-opacity:0;stroke-width:1.04px;"/>
                </g>
                <g transform="matrix(1.03493,0,0,0.497143,-99.9001,323.179)">
                    <path d="M511.232,419.705C511.766,418.809 512.951,417.391 510.277,416.982L344.757,416.982C343.531,416.982 343.519,417.237 342.277,418.748L337.065,425.088C336.188,426.155 336.865,426.903 338.234,426.903L503.217,426.903C505.122,426.903 505.74,426.716 507.536,424.423L511.232,419.705Z" style="fill:rgb(207,207,207);stroke:black;stroke-opacity:0;stroke-width:1.04px;"/>
                </g>
            </g>
            <g transform="matrix(0.655613,-0.0616308,0.0616308,0.655613,85.8694,13.6089)">
                <g transform="matrix(0.999104,-0.0423242,0.0423242,0.999104,-15.6543,29.4126)">
                    <g transform="matrix(1,0,0,1,-2.06747,-0.590705)">
                        <g transform="matrix(0.799178,0.151757,-0.186557,0.982444,287.159,-79.3974)">
                            <rect x="458.667" y="370.423" width="38.304" height="99.682" style="fill:rgb(174,103,78);stroke:black;stroke-width:1.33px;"/>
                        </g>
                        <g transform="matrix(1.05938,0.198645,-0.205338,1.09508,38.5605,-152.786)">
                            <rect x="603.819" y="358.01" width="9.23" height="88.237" style="fill:rgb(50,22,10);stroke:black;stroke-opacity:0;stroke-width:1.11px;"/>
                        </g>
                        <g transform="matrix(1.14323,0.214367,-0.205338,1.09508,-19.6809,-163.735)">
                            <rect x="603.819" y="358.01" width="9.23" height="88.237" style="fill:rgb(100,51,32);stroke:black;stroke-opacity:0;stroke-width:1.07px;"/>
                        </g>
                    </g>
                    <path d="M610.518,364.905L581.546,363.842L610.518,372.314L580.073,366.9L606.591,389.16L577.696,382.805L605.381,398.031L574.388,392.256L602.269,413.522L571.316,413.522L600.938,420.847L571.316,420.847L597.78,438.332L566.118,438.332L595.18,452.509" style="fill:none;stroke:black;stroke-width:1.21px;"/>
                </g>
                <g transform="matrix(0.988979,0.148057,-0.148057,0.988979,42.9333,-90.9202)">
                    <path d="M641.189,325.656C611.79,304.186 617.752,304.447 589.035,325.864C583.773,329.789 592.85,345.184 592.85,345.184L594.159,365.234L635.832,365.265L637.19,345.585C637.19,345.585 647.609,330.345 641.189,325.656Z" style="fill:rgb(173,173,173);stroke:black;stroke-width:1.21px;"/>
                </g>
                <g transform="matrix(1,1.11022e-16,5.55112e-17,1.40151,115.834,-199.5)">
                    <g transform="matrix(-0.983164,-0.182723,0.182723,-0.983164,1006.2,901.578)">
                        <g transform="matrix(1,0,0,0.445372,0,71.5711)">
                            <path d="M586.341,207.064L633.849,194.55L633.631,546.224L586.341,546.224L586.341,207.064Z" style="fill:rgb(173,173,173);stroke:black;stroke-width:1.37px;"/>
                        </g>
                        <path d="M628.98,166.383L610.879,203.051L591.091,166.383L610.879,203.051L610.879,313.393" style="fill:none;stroke:black;stroke-width:0.94px;"/>
                        <g transform="matrix(1.03279,-0.0453766,0.0826994,0.990784,-44.0824,30.7044)">
                            <path d="M636.435,291.63L582.475,293.148L579.371,320.371L633.167,320.285L636.435,291.63Z" style="fill:rgb(141,141,141);stroke:black;stroke-width:0.93px;"/>
                        </g>
                    </g>
                    <g transform="matrix(0.396457,0.0519608,0.0868159,-0.990357,280.347,968.879)">
                        <path d="M484.564,505.968C481.125,505.581 480.039,513.237 470.77,512.82C447.238,511.76 346.679,500.644 346.679,500.644C346.679,500.644 252.904,511.678 230.483,512.738C226.203,512.94 218.351,507.095 214.728,506.749C211.127,506.404 202.414,523.202 212.152,523.961C216.479,524.298 229.499,524.384 229.499,524.384L472.735,523.961C472.735,523.961 483.954,524.011 487.87,523.961C499.822,523.808 491.998,506.804 484.564,505.968Z" style="fill:rgb(141,141,141);stroke:black;stroke-width:1.23px;"/>
                    </g>
                </g>
            </g>
        </g>
    </g>
</svg>
